<svg width="24" height="25" viewBox="0 0 24 25" fill="none" xmlns="http://www.w3.org/2000/svg">
<mask id="mask0_2053_1843" style="mask-type:alpha" maskUnits="userSpaceOnUse" x="0" y="0" width="24" height="25">
<rect y="0.5" width="24" height="24" fill="#D9D9D9"/>
</mask>
<g mask="url(#mask0_2053_1843)">
<path d="M5.975 7.16667V7.06667H5.875H5.1V5.48889H9.375H9.475V5.38889V4.6H14.525V5.38889V5.48889H14.625H18.9V7.06667H18.125H18.025V7.16667V18.7222C18.025 19.1849 17.864 19.5782 17.5397 19.9076C17.2154 20.237 16.829 20.4 16.375 20.4H7.625C7.171 20.4 6.78456 20.237 6.46033 19.9076C6.13605 19.5782 5.975 19.1849 5.975 18.7222V7.16667ZM16.475 7.16667V7.06667H16.375H7.625H7.525V7.16667V18.7222V18.8222H7.625H16.375H16.475V18.7222V7.16667ZM11.025 9.04444V16.8444H9.475V9.04444H11.025ZM14.525 9.04444V16.8444H12.975V9.04444H14.525Z" fill="#E50C00" stroke="#FDF4F4" stroke-width="0.2"/>
</g>
</svg>
